<svg
      version="1.1"
      id="coffee_to_go"
      xmlns="http://www.w3.org/2000/svg"
      x="0px"
      y="0px"
      width="100%"
      height="40"
      viewBox="0 0 157 211"
      enableBackground="new 0 0 157 211"
    >
      <g id="parts_group">
        <path
          fill="#FFE1B7"
          d="M21.364,45.909l12.273,145.907c0,2.272,2.272,4.093,4.545,4.093h83.178c2.273,0,4.546-1.82,4.546-4.093
		l12.731-145.907H21.364z"
        />
        <path
          fill="#014463"
          d="M121.819,205H38.183c-7.273,0-13.184-5.455-13.636-12.273L11.818,41.818c0-1.365,0.455-2.728,1.365-3.638
		c0.908-0.907,1.818-1.362,3.181-1.362h127.273c1.362,0,2.272,0.455,3.183,1.362c0.909,0.91,1.362,2.273,1.362,3.638
		l-12.727,150.908C134.545,199.545,128.637,205,121.819,205 M21.364,45.909l12.273,145.907c0,2.272,2.272,4.093,4.545,4.093h83.178
		c2.273,0,4.546-1.82,4.546-4.093l12.731-145.907H21.364z"
        />
        <path
          fill="#D1AC80"
          d="M111.818,45.909H26.362h-5L33.636,191.82c0,2.273,2.272,4.089,4.545,4.089h73.638h10.001
		c2.272,0,4.545-1.815,4.545-4.089l12.27-145.911H111.818z M38.181,183.183L27.728,60.456C27.272,55,31.363,50.455,36.818,50.455
		h64.999c5.455,0,9.544,4.545,9.091,10.001l-10.453,122.727c-0.458,4.546-4.546,8.181-9.092,8.181H47.272
		C42.271,191.363,38.636,187.729,38.181,183.183"
        />
        <polygon fill="#F79548" points="135.003,145.909 138.639,91.364 21.364,91.364 25,145.909 	" />
        <path
          fill="#014463"
          d="M139.091,155H20.909c-2.273,0-4.545-1.82-4.545-4.093l-4.545-63.634c0-1.365,0.455-2.273,1.362-3.638
		c0.91-0.908,1.818-1.363,3.183-1.363h127.273c1.362,0,2.272,0.455,3.183,1.363c0.905,0.91,1.362,2.272,1.362,3.638l-4.545,63.634
		C143.637,153.18,141.363,155,139.091,155 M25,145.909h109.545l4.089-54.545H21.364L25,145.909z"
        />
        <polygon
          fill="#F37321"
          points="115.906,91.364 111.818,145.909 134.998,145.909 138.634,91.364 	"
        />
        <polygon fill="#F37321" points="21.364,91.364 25,145.909 29.545,145.909 25.455,91.364 	" />
        <path
          fill="#EDF1F9"
          d="M143.637,30c0-1.363-0.91-2.272-2.273-2.272h-4.545c-6.365,0-11.363-5.001-11.363-11.364
		c0-1.363-0.91-2.273-2.273-2.273H36.818c-1.363,0-2.273,0.91-2.273,2.273c0,6.363-5,11.364-11.364,11.364h-4.545
		c-1.363,0-2.272,0.91-2.272,2.272v6.818h127.273V30z"
        />
        <path
          fill="#A8C1DD"
          d="M141.363,27.728h-4.545c-6.365,0-11.363-5.001-11.363-11.364c0-1.363-0.91-2.273-2.273-2.273H95.909
		c1.362,0,2.272,0.91,2.272,2.273c0,6.363,4.998,11.364,11.363,11.364h4.546c1.362,0,2.272,0.91,2.272,2.272v6.818h27.273V30
		C143.637,28.637,142.727,27.728,141.363,27.728"
        />
        <path
          fill="#EDF1F9"
          d="M80,109.545c5.016,0,9.091,4.075,9.091,9.092c0,5.016-4.075,9.091-9.091,9.091
		c-5.018,0-9.091-4.075-9.091-9.091C70.909,113.62,74.982,109.545,80,109.545"
        />
        <path
          fill="#014463"
          d="M107.272,114.091h-9.544c-1.819-7.728-9.09-13.636-17.729-13.636c-8.636,0-15.454,5.909-17.727,13.636
		h-9.546c-2.728,0-4.546,1.82-4.546,4.546c0,2.725,1.818,4.545,4.546,4.545h9.546c1.817,7.729,9.091,13.637,17.727,13.637
		c8.639,0,15.456-5.908,17.729-13.637h9.544c2.726,0,4.546-1.82,4.546-4.545C111.818,115.911,109.998,114.091,107.272,114.091
		 M80,127.728c-5,0-9.091-4.093-9.091-9.091S75,109.545,80,109.545c4.998,0,9.091,4.094,9.091,9.092S84.998,127.728,80,127.728"
        />
        <path
          fill="#A8C1DD"
          d="M39.091,16.364c0-1.363,0.91-2.273,2.273-2.273h-4.545c-1.363,0-2.273,0.91-2.273,2.273
		c0,6.363-5,11.364-11.364,11.364h4.546C34.09,27.728,39.091,22.727,39.091,16.364"
        />
        <path
          fill="#A8C1DD"
          d="M23.182,27.728h-4.545c-1.363,0-2.272,0.91-2.272,2.272v6.818h4.545V30
		C20.909,28.637,21.819,27.728,23.182,27.728"
        />
        <path
          fill="#004463"
          d="M141.363,18.636h-4.545c-1.363,0-2.273-0.91-2.273-2.272C134.545,10,129.547,5,123.182,5H36.818
		c-6.363,0-11.364,5-11.364,11.364c0,1.363-0.91,2.272-2.273,2.272h-4.545c-6.363,0-11.364,5-11.364,11.364v11.364
		c0,2.728,1.818,4.545,4.546,4.545h136.363c2.726,0,4.546-1.818,4.546-4.545V30C152.728,23.637,147.729,18.636,141.363,18.636
		 M34.545,16.364c0-1.363,0.91-2.273,2.273-2.273h86.363c1.363,0,2.273,0.91,2.273,2.273c0,0.91,0,1.363,0.452,2.272H34.09
		C34.545,17.727,34.545,17.273,34.545,16.364 M143.637,36.818H16.364V30c0-1.363,0.91-2.272,2.272-2.272h2.273h2.272h113.637h2.272
		h2.272c1.363,0,2.273,0.91,2.273,2.272V36.818z"
        />
      </g>
    </svg>