<svg xmlns="http://www.w3.org/2000/svg" width="16" height="17" fill="none"><path fill="#fff" d="M13.25 5.25H2a.75.75 0 0 0-.75.75v3a6.265 6.265 0 0 0 1.67 4.25H2a.75.75 0 1 0 0 1.5h11a.75.75 0 1 0 0-1.5h-.92a6.298 6.298 0 0 0 1.25-2A2.75 2.75 0 0 0 16 8.5V8a2.753 2.753 0 0 0-2.75-2.75Zm-1 3.75a4.767 4.767 0 0 1-2.625 4.25h-4.25A4.767 4.767 0 0 1 2.75 9V6.75h9.5V9Zm2.25-.5a1.25 1.25 0 0 1-.786 1.16c.024-.22.036-.44.036-.66V6.855A1.25 1.25 0 0 1 14.5 8v.5Zm-10.25-5V2a.75.75 0 0 1 1.5 0v1.5a.75.75 0 0 1-1.5 0Zm2.5 0V2a.75.75 0 0 1 1.5 0v1.5a.75.75 0 0 1-1.5 0Zm2.5 0V2a.75.75 0 0 1 1.5 0v1.5a.75.75 0 1 1-1.5 0Z"/></svg>